<?xml version="1.0" encoding="utf-8"?>
<svg version="1.1" xmlns:xlink="http://www.w3.org/1999/xlink" width="12px" height="12px" viewBox="448 4021  12 12" xmlns="http://www.w3.org/2000/svg">
  <path d="M 454 4021  C 457.36 4021  460 4023.64  460 4027  C 460 4030.36  457.36 4033  454 4033  C 450.64 4033  448 4030.36  448 4027  C 448 4023.64  450.64 4021  454 4021  Z " fill-rule="nonzero" fill="#ffffff" stroke="none" />
  <path d="M 454 4021.5  C 457.08 4021.5  459.5 4023.92  459.5 4027  C 459.5 4030.08  457.08 4032.5  454 4032.5  C 450.92 4032.5  448.5 4030.08  448.5 4027  C 448.5 4023.92  450.92 4021.5  454 4021.5  Z " stroke-width="1" stroke="#797979" fill="none" />
  <path d="M 454 4030  C 452.32 4030  451 4028.68  451 4027  C 451 4025.32  452.32 4024  454 4024  C 455.68 4024  457 4025.32  457 4027  C 457 4028.68  455.68 4030  454 4030  " fill-rule="nonzero" fill="#797979" stroke="none" />
</svg>