<?xml version="1.0" encoding="utf-8"?>
<svg version="1.1" xmlns:xlink="http://www.w3.org/1999/xlink" width="12px" height="12px" viewBox="561 5005  12 12" xmlns="http://www.w3.org/2000/svg">
  <path d="M 567 5005  C 570.36 5005  573 5007.64  573 5011  C 573 5014.36  570.36 5017  567 5017  C 563.64 5017  561 5014.36  561 5011  C 561 5007.64  563.64 5005  567 5005  Z " fill-rule="nonzero" fill="#ffffff" stroke="none" />
  <path d="M 567 5005.5  C 570.08 5005.5  572.5 5007.92  572.5 5011  C 572.5 5014.08  570.08 5016.5  567 5016.5  C 563.92 5016.5  561.5 5014.08  561.5 5011  C 561.5 5007.92  563.92 5005.5  567 5005.5  Z " stroke-width="1" stroke="#797979" fill="none" />
  <path d="M 567 5014  C 565.32 5014  564 5012.68  564 5011  C 564 5009.32  565.32 5008  567 5008  C 568.68 5008  570 5009.32  570 5011  C 570 5012.68  568.68 5014  567 5014  " fill-rule="nonzero" fill="#797979" stroke="none" />
</svg>