<?xml version="1.0" encoding="utf-8"?>
<svg version="1.1" xmlns:xlink="http://www.w3.org/1999/xlink" width="12px" height="12px" viewBox="524 3187  12 12" xmlns="http://www.w3.org/2000/svg">
  <path d="M 530 3187  C 533.36 3187  536 3189.64  536 3193  C 536 3196.36  533.36 3199  530 3199  C 526.64 3199  524 3196.36  524 3193  C 524 3189.64  526.64 3187  530 3187  Z " fill-rule="nonzero" fill="#ffffff" stroke="none" />
  <path d="M 530 3187.5  C 533.08 3187.5  535.5 3189.92  535.5 3193  C 535.5 3196.08  533.08 3198.5  530 3198.5  C 526.92 3198.5  524.5 3196.08  524.5 3193  C 524.5 3189.92  526.92 3187.5  530 3187.5  Z " stroke-width="1" stroke="#797979" fill="none" />
  <path d="M 530 3196  C 528.32 3196  527 3194.68  527 3193  C 527 3191.32  528.32 3190  530 3190  C 531.68 3190  533 3191.32  533 3193  C 533 3194.68  531.68 3196  530 3196  " fill-rule="nonzero" fill="#797979" stroke="none" />
</svg>