<?xml version="1.0" encoding="utf-8"?>
<svg version="1.1" xmlns:xlink="http://www.w3.org/1999/xlink" width="12px" height="12px" viewBox="617 4129  12 12" xmlns="http://www.w3.org/2000/svg">
  <path d="M 623 4129  C 626.36 4129  629 4131.64  629 4135  C 629 4138.36  626.36 4141  623 4141  C 619.64 4141  617 4138.36  617 4135  C 617 4131.64  619.64 4129  623 4129  Z " fill-rule="nonzero" fill="#f0f0f0" stroke="none" />
  <path d="M 623 4129.5  C 626.08 4129.5  628.5 4131.92  628.5 4135  C 628.5 4138.08  626.08 4140.5  623 4140.5  C 619.92 4140.5  617.5 4138.08  617.5 4135  C 617.5 4131.92  619.92 4129.5  623 4129.5  Z " stroke-width="1" stroke="#797979" fill="none" />
  <path d="M 623 4138  C 621.32 4138  620 4136.68  620 4135  C 620 4133.32  621.32 4132  623 4132  C 624.68 4132  626 4133.32  626 4135  C 626 4136.68  624.68 4138  623 4138  " fill-rule="nonzero" fill="#797979" stroke="none" />
</svg>