<?xml version="1.0" encoding="utf-8"?>
<svg version="1.1" xmlns:xlink="http://www.w3.org/1999/xlink" width="12px" height="12px" viewBox="730 5113  12 12" xmlns="http://www.w3.org/2000/svg">
  <path d="M 736 5113  C 739.36 5113  742 5115.64  742 5119  C 742 5122.36  739.36 5125  736 5125  C 732.64 5125  730 5122.36  730 5119  C 730 5115.64  732.64 5113  736 5113  Z " fill-rule="nonzero" fill="#f0f0f0" stroke="none" />
  <path d="M 736 5113.5  C 739.08 5113.5  741.5 5115.92  741.5 5119  C 741.5 5122.08  739.08 5124.5  736 5124.5  C 732.92 5124.5  730.5 5122.08  730.5 5119  C 730.5 5115.92  732.92 5113.5  736 5113.5  Z " stroke-width="1" stroke="#797979" fill="none" />
  <path d="M 736 5122  C 734.32 5122  733 5120.68  733 5119  C 733 5117.32  734.32 5116  736 5116  C 737.68 5116  739 5117.32  739 5119  C 739 5120.68  737.68 5122  736 5122  " fill-rule="nonzero" fill="#797979" stroke="none" />
</svg>