<?xml version="1.0" encoding="utf-8"?>
<svg version="1.1" xmlns:xlink="http://www.w3.org/1999/xlink" width="40px" height="50px" xmlns="http://www.w3.org/2000/svg">
  <defs>
    <mask fill="white" id="clip48">
      <path d="M 30 14  C 30 18.2221744255867  28.3955918807931 21.7312785759705  26.0899877662616 25.1294538670718  C 22.9348887403464 29.7796795859067  18.4666953446481 34.2221744255867  15 40  C 11.071051195994 33.4517519933233  5.85571583327953 28.6186860649241  2.72342519940798 23.2545146897692  C 1.07231326410704 20.4269203137101  0 17.4517519933233  0 14  C 0 8.80000000000018  3 0  15 0  C 18.0815614040512 0  20.5696215151687 0.580312375313042  22.5657864821059 1.5309510851821  C 28.3429469377144 4.28222287543485  30 10.1353432750884  30 14  Z " fill-rule="evenodd" />
    </mask>
    <filter x="740px" y="7831px" width="40px" height="50px" filterUnits="userSpaceOnUse" id="filter49">
      <feOffset dx="1" dy="1" in="SourceAlpha" result="shadowOffsetInner" />
      <feGaussianBlur stdDeviation="2.5" in="shadowOffsetInner" result="shadowGaussian" />
      <feComposite in2="shadowGaussian" operator="atop" in="SourceAlpha" result="shadowComposite" />
      <feColorMatrix type="matrix" values="0 0 0 0 0  0 0 0 0 0  0 0 0 0 0  0 0 0 0.698039215686274 0  " in="shadowComposite" />
    </filter>
    <g id="widget50">
      <path d="M 30 14  C 30 18.2221744255867  28.3955918807931 21.7312785759705  26.0899877662616 25.1294538670718  C 22.9348887403464 29.7796795859067  18.4666953446481 34.2221744255867  15 40  C 11.071051195994 33.4517519933233  5.85571583327953 28.6186860649241  2.72342519940798 23.2545146897692  C 1.07231326410704 20.4269203137101  0 17.4517519933233  0 14  C 0 8.80000000000018  3 0  15 0  C 18.0815614040512 0  20.5696215151687 0.580312375313042  22.5657864821059 1.5309510851821  C 28.3429469377144 4.28222287543485  30 10.1353432750884  30 14  Z " fill-rule="nonzero" fill="#ec808d" stroke="none" transform="matrix(1 0 0 1 744 7835 )" />
      <path d="M 30 14  C 30 18.2221744255867  28.3955918807931 21.7312785759705  26.0899877662616 25.1294538670718  C 22.9348887403464 29.7796795859067  18.4666953446481 34.2221744255867  15 40  C 11.071051195994 33.4517519933233  5.85571583327953 28.6186860649241  2.72342519940798 23.2545146897692  C 1.07231326410704 20.4269203137101  0 17.4517519933233  0 14  C 0 8.80000000000018  3 0  15 0  C 18.0815614040512 0  20.5696215151687 0.580312375313042  22.5657864821059 1.5309510851821  C 28.3429469377144 4.28222287543485  30 10.1353432750884  30 14  Z " stroke-width="2" stroke="#ffffff" fill="none" transform="matrix(1 0 0 1 744 7835 )" mask="url(#clip48)" />
    </g>
  </defs>
  <g transform="matrix(1 0 0 1 -740 -7831 )">
    <use xlink:href="#widget50" filter="url(#filter49)" />
    <use xlink:href="#widget50" />
  </g>
</svg>