<?xml version="1.0" encoding="utf-8"?>
<svg version="1.1" xmlns:xlink="http://www.w3.org/1999/xlink" width="12px" height="12px" viewBox="693 3295  12 12" xmlns="http://www.w3.org/2000/svg">
  <path d="M 699 3295  C 702.36 3295  705 3297.64  705 3301  C 705 3304.36  702.36 3307  699 3307  C 695.64 3307  693 3304.36  693 3301  C 693 3297.64  695.64 3295  699 3295  Z " fill-rule="nonzero" fill="#ffffff" stroke="none" />
  <path d="M 699 3295.5  C 702.08 3295.5  704.5 3297.92  704.5 3301  C 704.5 3304.08  702.08 3306.5  699 3306.5  C 695.92 3306.5  693.5 3304.08  693.5 3301  C 693.5 3297.92  695.92 3295.5  699 3295.5  Z " stroke-width="1" stroke="#797979" fill="none" />
  <path d="M 699 3304  C 697.32 3304  696 3302.68  696 3301  C 696 3299.32  697.32 3298  699 3298  C 700.68 3298  702 3299.32  702 3301  C 702 3302.68  700.68 3304  699 3304  " fill-rule="nonzero" fill="#797979" stroke="none" />
</svg>