<?xml version="1.0" encoding="utf-8"?>
<svg version="1.1" xmlns:xlink="http://www.w3.org/1999/xlink" width="40px" height="50px" xmlns="http://www.w3.org/2000/svg">
  <defs>
    <mask fill="white" id="clip53">
      <path d="M 30 14  C 30 18.2221744255876  28.3955918807931 21.7312785759714  26.0899877662616 25.1294538670718  C 25.7172233403628 25.6788625246591  25.3261336284531 26.2253663472075  24.9205304076146 26.7715178981471  C 21.8930639938372 30.8480508735538  18.0571168530382 34.9048052449361  15 40  C 12.4101488569489 35.6835814282476  9.26135363530102 32.1124216279586  6.51866897562672 28.6431508387523  C 5.10054213796457 26.8493364045862  3.79099906470549 25.0827770825254  2.72342519940798 23.2545146897683  C 1.07231326410704 20.4269203137101  0 17.4517519933233  0 14  C 0 9.49944227854758  2.24722852856314 2.30221032282134  10.6316016264936 0.447463950480596  C 11.9346368027489 0.159213447077491  13.3859024341186 0  15 0  C 18.0815614040512 0  20.5696215151687 0.580312375313952  22.5657864821059 1.5309510851821  C 28.3429469377144 4.28222287543394  30 10.1353432750875  30 14  Z " fill-rule="evenodd" />
    </mask>
    <filter x="788px" y="9145px" width="40px" height="50px" filterUnits="userSpaceOnUse" id="filter54">
      <feOffset dx="1" dy="1" in="SourceAlpha" result="shadowOffsetInner" />
      <feGaussianBlur stdDeviation="2.5" in="shadowOffsetInner" result="shadowGaussian" />
      <feComposite in2="shadowGaussian" operator="atop" in="SourceAlpha" result="shadowComposite" />
      <feColorMatrix type="matrix" values="0 0 0 0 0  0 0 0 0 0  0 0 0 0 0  0 0 0 0.698039215686274 0  " in="shadowComposite" />
    </filter>
    <g id="widget55">
      <path d="M 30 14  C 30 18.2221744255876  28.3955918807931 21.7312785759714  26.0899877662616 25.1294538670718  C 25.7172233403628 25.6788625246591  25.3261336284531 26.2253663472075  24.9205304076146 26.7715178981471  C 21.8930639938372 30.8480508735538  18.0571168530382 34.9048052449361  15 40  C 12.4101488569489 35.6835814282476  9.26135363530102 32.1124216279586  6.51866897562672 28.6431508387523  C 5.10054213796457 26.8493364045862  3.79099906470549 25.0827770825254  2.72342519940798 23.2545146897683  C 1.07231326410704 20.4269203137101  0 17.4517519933233  0 14  C 0 9.49944227854758  2.24722852856314 2.30221032282134  10.6316016264936 0.447463950480596  C 11.9346368027489 0.159213447077491  13.3859024341186 0  15 0  C 18.0815614040512 0  20.5696215151687 0.580312375313952  22.5657864821059 1.5309510851821  C 28.3429469377144 4.28222287543394  30 10.1353432750875  30 14  Z " fill-rule="nonzero" fill="#ec808d" stroke="none" transform="matrix(1 0 0 1 792 9149 )" />
      <path d="M 30 14  C 30 18.2221744255876  28.3955918807931 21.7312785759714  26.0899877662616 25.1294538670718  C 25.7172233403628 25.6788625246591  25.3261336284531 26.2253663472075  24.9205304076146 26.7715178981471  C 21.8930639938372 30.8480508735538  18.0571168530382 34.9048052449361  15 40  C 12.4101488569489 35.6835814282476  9.26135363530102 32.1124216279586  6.51866897562672 28.6431508387523  C 5.10054213796457 26.8493364045862  3.79099906470549 25.0827770825254  2.72342519940798 23.2545146897683  C 1.07231326410704 20.4269203137101  0 17.4517519933233  0 14  C 0 9.49944227854758  2.24722852856314 2.30221032282134  10.6316016264936 0.447463950480596  C 11.9346368027489 0.159213447077491  13.3859024341186 0  15 0  C 18.0815614040512 0  20.5696215151687 0.580312375313952  22.5657864821059 1.5309510851821  C 28.3429469377144 4.28222287543394  30 10.1353432750875  30 14  Z " stroke-width="2" stroke="#ffffff" fill="none" transform="matrix(1 0 0 1 792 9149 )" mask="url(#clip53)" />
    </g>
  </defs>
  <g transform="matrix(1 0 0 1 -788 -9145 )">
    <use xlink:href="#widget55" filter="url(#filter54)" />
    <use xlink:href="#widget55" />
  </g>
</svg>