<?xml version="1.0" encoding="utf-8"?>
<svg version="1.1" xmlns:xlink="http://www.w3.org/1999/xlink" width="80px" height="20px" xmlns="http://www.w3.org/2000/svg">
  <defs>
    <mask fill="white" id="clip74">
      <path d="M 10.2564102564103 20  C 4.51282051282049 20  0 15.6  0 10  C 0 4.39999999999998  4.51282051282049 0  10.2564102564103 0  L 69.7435897435898 0  C 75.4871794871795 0  80 4.39999999999998  80 10  C 80 15.6  75.4871794871795 20  69.7435897435898 20  L 54.5054945054935 20  L 10.2564102564103 20  Z " fill-rule="evenodd" />
    </mask>
  </defs>
  <g transform="matrix(1 0 0 1 -494 -203 )">
    <path d="M 10.2564102564103 20  C 4.51282051282049 20  0 15.6  0 10  C 0 4.39999999999998  4.51282051282049 0  10.2564102564103 0  L 69.7435897435898 0  C 75.4871794871795 0  80 4.39999999999998  80 10  C 80 15.6  75.4871794871795 20  69.7435897435898 20  L 54.5054945054935 20  L 10.2564102564103 20  Z " fill-rule="nonzero" fill="#f2f2f2" stroke="none" transform="matrix(1 0 0 1 494 203 )" />
    <path d="M 10.2564102564103 20  C 4.51282051282049 20  0 15.6  0 10  C 0 4.39999999999998  4.51282051282049 0  10.2564102564103 0  L 69.7435897435898 0  C 75.4871794871795 0  80 4.39999999999998  80 10  C 80 15.6  75.4871794871795 20  69.7435897435898 20  L 54.5054945054935 20  L 10.2564102564103 20  Z " stroke-width="2" stroke="#39cccc" fill="none" transform="matrix(1 0 0 1 494 203 )" mask="url(#clip74)" />
  </g>
</svg>