<?xml version="1.0" encoding="utf-8"?>
<svg version="1.1" xmlns:xlink="http://www.w3.org/1999/xlink" width="1024px" height="863px" xmlns="http://www.w3.org/2000/svg">
  <g transform="matrix(1 0 0 1 0 -60 )">
    <path d="M 0 60  L 1024 60  L 1024 923  L 0 923  L 0 60  " fill-rule="nonzero" fill="#cccccc" stroke="none" />
    <path d="M 60 120  L 964 120  L 964 863  L 60 863  L 60 120  " fill-rule="nonzero" fill="#ffffff" stroke="none" />
    <path d="M 597.205 318.9  C 560.959 318.9  532.48 290.421  532.48 254.175  C 532.48 217.929  560.959 189.45  597.205 189.45  C 633.451 189.45  661.93 217.929  661.93 254.175  C 661.93 290.421  633.451 318.9  597.205 318.9  " fill-rule="nonzero" fill="#cccccc" stroke="none" />
    <path d="M 82 842  L 82 457  L 297.25 282  L 598.6 488.03515625  L 770.8 387  L 943 488.03515625  L 943 842  L 82 842  " fill-rule="nonzero" fill="#169bd5" stroke="none" />
  </g>
</svg>