<?xml version="1.0" encoding="utf-8"?>
<svg version="1.1" xmlns:xlink="http://www.w3.org/1999/xlink" width="12px" height="12px" viewBox="30 329  12 12" xmlns="http://www.w3.org/2000/svg">
  <path d="M 36 329  C 39.36 329  42 331.64  42 335  C 42 338.36  39.36 341  36 341  C 32.64 341  30 338.36  30 335  C 30 331.64  32.64 329  36 329  Z " fill-rule="nonzero" fill="#ffffff" stroke="none" />
  <path d="M 36 329.5  C 39.08 329.5  41.5 331.92  41.5 335  C 41.5 338.08  39.08 340.5  36 340.5  C 32.92 340.5  30.5 338.08  30.5 335  C 30.5 331.92  32.92 329.5  36 329.5  Z " stroke-width="1" stroke="#797979" fill="none" />
  <path d="M 36 338  C 34.32 338  33 336.68  33 335  C 33 333.32  34.32 332  36 332  C 37.68 332  39 333.32  39 335  C 39 336.68  37.68 338  36 338  " fill-rule="nonzero" fill="#797979" stroke="none" />
</svg>