<?xml version="1.0" encoding="utf-8"?>
<svg version="1.1" xmlns:xlink="http://www.w3.org/1999/xlink" width="40px" height="50px" xmlns="http://www.w3.org/2000/svg">
  <defs>
    <mask fill="white" id="clip4">
      <path d="M 30 14  C 30 16.6071673660581  29.3882410492826 18.9424418651308  28.3773842108081 21.1475975391916  C 25.5110183913345 27.4004937062553  19.4356995803651 32.6071673660581  15 40  C 11.5956306015141 34.3260510025236  7.22545028624938 29.9398498940857  4.08144380740941 25.3800735058838  C 3.80110291429492 24.9734929871495  3.53051097662717 24.5655324212972  3.27122197857386 24.1551558188818  C 1.31340079231643 21.0565129432283  0 17.8201233143512  0 14  C 0 8.80000000000001  15 0  15 0  C 15 0  30 8.80000000000001  30 14  Z " fill-rule="evenodd" />
    </mask>
    <filter x="586px" y="144px" width="40px" height="50px" filterUnits="userSpaceOnUse" id="filter5">
      <feOffset dx="1" dy="1" in="SourceAlpha" result="shadowOffsetInner" />
      <feGaussianBlur stdDeviation="2.5" in="shadowOffsetInner" result="shadowGaussian" />
      <feComposite in2="shadowGaussian" operator="atop" in="SourceAlpha" result="shadowComposite" />
      <feColorMatrix type="matrix" values="0 0 0 0 0  0 0 0 0 0  0 0 0 0 0  0 0 0 0.698039215686274 0  " in="shadowComposite" />
    </filter>
    <g id="widget6">
      <path d="M 30 14  C 30 16.6071673660581  29.3882410492826 18.9424418651308  28.3773842108081 21.1475975391916  C 25.5110183913345 27.4004937062553  19.4356995803651 32.6071673660581  15 40  C 11.5956306015141 34.3260510025236  7.22545028624938 29.9398498940857  4.08144380740941 25.3800735058838  C 3.80110291429492 24.9734929871495  3.53051097662717 24.5655324212972  3.27122197857386 24.1551558188818  C 1.31340079231643 21.0565129432283  0 17.8201233143512  0 14  C 0 8.80000000000001  15 0  15 0  C 15 0  30 8.80000000000001  30 14  Z " fill-rule="nonzero" fill="#008080" stroke="none" transform="matrix(1 0 0 1 590 148 )" />
      <path d="M 30 14  C 30 16.6071673660581  29.3882410492826 18.9424418651308  28.3773842108081 21.1475975391916  C 25.5110183913345 27.4004937062553  19.4356995803651 32.6071673660581  15 40  C 11.5956306015141 34.3260510025236  7.22545028624938 29.9398498940857  4.08144380740941 25.3800735058838  C 3.80110291429492 24.9734929871495  3.53051097662717 24.5655324212972  3.27122197857386 24.1551558188818  C 1.31340079231643 21.0565129432283  0 17.8201233143512  0 14  C 0 8.80000000000001  15 0  15 0  C 15 0  30 8.80000000000001  30 14  Z " stroke-width="2" stroke="#ffffff" fill="none" transform="matrix(1 0 0 1 590 148 )" mask="url(#clip4)" />
    </g>
  </defs>
  <g transform="matrix(1 0 0 1 -586 -144 )">
    <use xlink:href="#widget6" filter="url(#filter5)" />
    <use xlink:href="#widget6" />
  </g>
</svg>