<?xml version="1.0" encoding="utf-8"?>
<svg version="1.1" xmlns:xlink="http://www.w3.org/1999/xlink" width="40px" height="50px" xmlns="http://www.w3.org/2000/svg">
  <defs>
    <mask fill="white" id="clip1">
      <path d="M 30 14  C 30 24  21 30  15 40  C 11.5956306015141 34.3260510025236  7.22545028624938 29.9398498940857  4.08144380740941 25.3800735058838  C 1.68432455487914 21.9035133139897  0 18.3260510025236  0 14  C 0 8.8  15 0  15 0  C 15 0  30 8.8  30 14  Z " fill-rule="evenodd" />
    </mask>
    <filter x="533px" y="-4px" width="40px" height="50px" filterUnits="userSpaceOnUse" id="filter2">
      <feOffset dx="1" dy="1" in="SourceAlpha" result="shadowOffsetInner" />
      <feGaussianBlur stdDeviation="2.5" in="shadowOffsetInner" result="shadowGaussian" />
      <feComposite in2="shadowGaussian" operator="atop" in="SourceAlpha" result="shadowComposite" />
      <feColorMatrix type="matrix" values="0 0 0 0 0  0 0 0 0 0  0 0 0 0 0  0 0 0 0.698039215686274 0  " in="shadowComposite" />
    </filter>
    <g id="widget3">
      <path d="M 30 14  C 30 24  21 30  15 40  C 11.5956306015141 34.3260510025236  7.22545028624938 29.9398498940857  4.08144380740941 25.3800735058838  C 1.68432455487914 21.9035133139897  0 18.3260510025236  0 14  C 0 8.8  15 0  15 0  C 15 0  30 8.8  30 14  Z " fill-rule="nonzero" fill="#009dd9" stroke="none" transform="matrix(1 0 0 1 537 0 )" />
      <path d="M 30 14  C 30 24  21 30  15 40  C 11.5956306015141 34.3260510025236  7.22545028624938 29.9398498940857  4.08144380740941 25.3800735058838  C 1.68432455487914 21.9035133139897  0 18.3260510025236  0 14  C 0 8.8  15 0  15 0  C 15 0  30 8.8  30 14  Z " stroke-width="2" stroke="#ffffff" fill="none" transform="matrix(1 0 0 1 537 0 )" mask="url(#clip1)" />
    </g>
  </defs>
  <g transform="matrix(1 0 0 1 -533 4 )">
    <use xlink:href="#widget3" filter="url(#filter2)" />
    <use xlink:href="#widget3" />
  </g>
</svg>