<?xml version="1.0" encoding="utf-8"?>
<svg version="1.1" xmlns:xlink="http://www.w3.org/1999/xlink" width="12px" height="12px" viewBox="607 507  12 12" xmlns="http://www.w3.org/2000/svg">
  <path d="M 613 507  C 616.36 507  619 509.64  619 513  C 619 516.36  616.36 519  613 519  C 609.64 519  607 516.36  607 513  C 607 509.64  609.64 507  613 507  Z " fill-rule="nonzero" fill="#f0f0f0" stroke="none" />
  <path d="M 613 507.5  C 616.08 507.5  618.5 509.92  618.5 513  C 618.5 516.08  616.08 518.5  613 518.5  C 609.92 518.5  607.5 516.08  607.5 513  C 607.5 509.92  609.92 507.5  613 507.5  Z " stroke-width="1" stroke="#797979" fill="none" />
  <path d="M 613 516  C 611.32 516  610 514.68  610 513  C 610 511.32  611.32 510  613 510  C 614.68 510  616 511.32  616 513  C 616 514.68  614.68 516  613 516  " fill-rule="nonzero" fill="#797979" stroke="none" />
</svg>