<?xml version="1.0" encoding="utf-8"?>
<svg version="1.1" xmlns:xlink="http://www.w3.org/1999/xlink" width="40px" height="50px" xmlns="http://www.w3.org/2000/svg">
  <defs>
    <mask fill="white" id="clip9">
      <path d="M 30 14  C 30 18.3297989627998  25.9121736570127 25.3893274673828  25.9120983782569 25.3894365808384  C 22.7685675059183 29.9458550897986  18.4020391530154 34.3299347449743  15 40  C 9 30  0 24  0 14  C 0 8.79999999999995  3 0  15 0  C 27 0  30 8.79999999999995  30 14  Z " fill-rule="evenodd" />
    </mask>
    <filter x="122px" y="582px" width="40px" height="50px" filterUnits="userSpaceOnUse" id="filter10">
      <feOffset dx="1" dy="1" in="SourceAlpha" result="shadowOffsetInner" />
      <feGaussianBlur stdDeviation="2.5" in="shadowOffsetInner" result="shadowGaussian" />
      <feComposite in2="shadowGaussian" operator="atop" in="SourceAlpha" result="shadowComposite" />
      <feColorMatrix type="matrix" values="0 0 0 0 0  0 0 0 0 0  0 0 0 0 0  0 0 0 0.698039215686274 0  " in="shadowComposite" />
    </filter>
    <g id="widget11">
      <path d="M 30 14  C 30 18.3297989627998  25.9121736570127 25.3893274673828  25.9120983782569 25.3894365808384  C 22.7685675059183 29.9458550897986  18.4020391530154 34.3299347449743  15 40  C 9 30  0 24  0 14  C 0 8.79999999999995  3 0  15 0  C 27 0  30 8.79999999999995  30 14  Z " fill-rule="nonzero" fill="#009dd9" stroke="none" transform="matrix(1 0 0 1 126 586 )" />
      <path d="M 30 14  C 30 18.3297989627998  25.9121736570127 25.3893274673828  25.9120983782569 25.3894365808384  C 22.7685675059183 29.9458550897986  18.4020391530154 34.3299347449743  15 40  C 9 30  0 24  0 14  C 0 8.79999999999995  3 0  15 0  C 27 0  30 8.79999999999995  30 14  Z " stroke-width="2" stroke="#ffffff" fill="none" transform="matrix(1 0 0 1 126 586 )" mask="url(#clip9)" />
    </g>
  </defs>
  <g transform="matrix(1 0 0 1 -122 -582 )">
    <use xlink:href="#widget11" filter="url(#filter10)" />
    <use xlink:href="#widget11" />
  </g>
</svg>