<?xml version="1.0" encoding="utf-8"?>
<svg version="1.1" xmlns:xlink="http://www.w3.org/1999/xlink" width="10px" height="8px" xmlns="http://www.w3.org/2000/svg">
  <g transform="matrix(1 0 0 1 -541 -484 )">
    <path d="M 9.23270089285714 7.21875  C 9.26804315476191 7.18276515151515  9.28571428571429 7.14015151515152  9.28571428571429 7.09090909090909  L 9.28571428571429 2.72727272727273  C 9.16666666666667 2.86363636363636  9.03831845238095 2.98863636363636  8.90066964285714 3.10227272727273  C 7.90364583333333 3.88257575757576  7.11123511904762 4.52272727272727  6.5234375 5.02272727272727  C 6.33370535714286 5.18560606060606  6.17931547619048 5.3125  6.06026785714286 5.40340909090909  C 5.94122023809524 5.49431818181818  5.78031994047619 5.58617424242424  5.57756696428571 5.67897727272727  C 5.37481398809524 5.7717803030303  5.18415178571429 5.81818181818182  5.00558035714286 5.81818181818182  L 5 5.81818181818182  L 4.99441964285714 5.81818181818182  C 4.81584821428571 5.81818181818182  4.62518601190476 5.7717803030303  4.42243303571429 5.67897727272727  C 4.21968005952381 5.58617424242424  4.05877976190476 5.49431818181818  3.93973214285714 5.40340909090909  C 3.82068452380952 5.3125  3.66629464285714 5.18560606060606  3.4765625 5.02272727272727  C 2.88876488095238 4.52272727272727  2.09635416666667 3.88257575757576  1.09933035714286 3.10227272727273  C 0.961681547619048 2.98863636363636  0.833333333333333 2.86363636363636  0.714285714285714 2.72727272727273  L 0.714285714285714 7.09090909090909  C 0.714285714285714 7.14015151515152  0.731956845238095 7.18276515151515  0.767299107142857 7.21875  C 0.802641369047619 7.25473484848485  0.844494047619048 7.27272727272727  0.892857142857143 7.27272727272727  L 9.10714285714286 7.27272727272727  C 9.15550595238095 7.27272727272727  9.19735863095238 7.25473484848485  9.23270089285714 7.21875  Z M 9.02622767857143 1.86647727272727  C 9.19921875 1.59185606060606  9.28571428571429 1.34280303030303  9.28571428571429 1.11931818181818  L 9.28571428571429 1.05681818181818  L 9.28571428571429 0.980113636363637  C 9.28571428571429 0.980113636363637  9.28478422619048 0.955492424242423  9.28292410714286 0.90625  C 9.28106398809524 0.857007575757575  9.27548363095238 0.833333333333332  9.26618303571429 0.835227272727272  C 9.25688244047619 0.837121212121212  9.24665178571429 0.820075757575757  9.23549107142857 0.784090909090909  C 9.22433035714286 0.74810606060606  9.20758928571429 0.733901515151515  9.18526785714286 0.741477272727272  C 9.16294642857143 0.74905303030303  9.13690476190476 0.744318181818182  9.10714285714286 0.727272727272728  L 0.892857142857143 0.727272727272728  C 0.844494047619048 0.727272727272728  0.802641369047619 0.74526515151515  0.767299107142857 0.78125  C 0.731956845238095 0.817234848484848  0.714285714285714 0.859848484848484  0.714285714285714 0.909090909090909  C 0.714285714285714 1.54545454545455  0.987723214285714 2.08333333333333  1.53459821428571 2.52272727272727  C 2.25260416666667 3.09848484848485  2.99851190476191 3.69886363636364  3.77232142857143 4.32386363636364  C 3.79464285714286 4.34280303030303  3.85974702380952 4.39867424242424  3.96763392857143 4.49147727272727  C 4.07552083333333 4.5842803030303  4.16108630952381 4.65530303030303  4.22433035714286 4.70454545454546  C 4.28757440476191 4.75378787878788  4.37034970238095 4.81344696969697  4.47265625 4.88352272727273  C 4.57496279761905 4.95359848484848  4.66889880952381 5.00568181818182  4.75446428571429 5.03977272727273  C 4.84002976190476 5.07386363636364  4.92001488095238 5.09090909090909  4.99441964285714 5.09090909090909  L 5 5.09090909090909  L 5.00558035714286 5.09090909090909  C 5.07998511904762 5.09090909090909  5.15997023809524 5.07386363636364  5.24553571428571 5.03977272727273  C 5.33110119047619 5.00568181818182  5.42503720238095 4.95359848484848  5.52734375 4.88352272727273  C 5.62965029761905 4.81344696969697  5.71242559523809 4.75378787878788  5.77566964285714 4.70454545454546  C 5.83891369047619 4.65530303030303  5.92447916666667 4.5842803030303  6.03236607142857 4.49147727272727  C 6.14025297619048 4.39867424242424  6.20535714285714 4.34280303030303  6.22767857142857 4.32386363636364  C 7.00148809523809 3.69886363636364  7.74739583333333 3.09848484848485  8.46540178571429 2.52272727272727  C 8.66629464285714 2.35984848484848  8.85323660714286 2.14109848484848  9.02622767857143 1.86647727272727  Z M 9.73772321428571 0.267045454545454  C 9.91257440476191 0.445075757575757  10 0.659090909090909  10 0.909090909090909  L 10 7.09090909090909  C 10 7.34090909090909  9.91257440476191 7.55492424242424  9.73772321428571 7.73295454545455  C 9.56287202380953 7.91098484848485  9.35267857142857 8  9.10714285714286 8  L 0.892857142857143 8  C 0.647321428571429 8  0.437127976190476 7.91098484848485  0.262276785714286 7.73295454545455  C 0.0874255952380952 7.55492424242424  0 7.34090909090909  0 7.09090909090909  L 0 0.909090909090909  C 0 0.659090909090909  0.0874255952380952 0.445075757575757  0.262276785714286 0.267045454545454  C 0.437127976190476 0.0890151515151505  0.647321428571429 0  0.892857142857143 0  L 9.10714285714286 0  C 9.35267857142857 0  9.56287202380953 0.0890151515151505  9.73772321428571 0.267045454545454  Z " fill-rule="nonzero" fill="#000000" stroke="none" transform="matrix(1 0 0 1 541 484 )" />
  </g>
</svg>