<?xml version="1.0" encoding="utf-8"?>
<svg version="1.1" xmlns:xlink="http://www.w3.org/1999/xlink" width="19px" height="19px" xmlns="http://www.w3.org/2000/svg">
  <g transform="matrix(1 0 0 1 -612 -1558 )">
    <path d="M 9.21549479166667 11.1946614583333  C 9.29796006944444 11.2771267361111  9.33919270833333 11.3719618055556  9.33919270833333 11.4791666666667  C 9.33919270833333 11.5863715277778  9.29796006944444 11.6812065972222  9.21549479166667 11.763671875  L 5.10872395833333 15.8704427083333  L 6.88997395833333 17.6516927083333  C 7.04665798611111 17.8083767361111  7.125 17.9939236111111  7.125 18.2083333333333  C 7.125 18.4227430555556  7.04665798611111 18.6082899305556  6.88997395833333 18.7649739583333  C 6.73328993055556 18.9216579861111  6.54774305555556 19  6.33333333333333 19  L 0.791666666666667 19  C 0.577256944444445 19  0.391710069444444 18.9216579861111  0.235026041666667 18.7649739583333  C 0.0783420138888889 18.6082899305556  0 18.4227430555556  0 18.2083333333333  L 0 12.6666666666667  C 0 12.4522569444444  0.0783420138888889 12.2667100694444  0.235026041666667 12.1100260416667  C 0.391710069444444 11.9533420138889  0.577256944444445 11.875  0.791666666666667 11.875  C 1.00607638888889 11.875  1.19162326388889 11.9533420138889  1.34830729166667 12.1100260416667  L 3.12955729166667 13.8912760416667  L 7.236328125 9.78450520833333  C 7.31879340277778 9.70203993055556  7.41362847222222 9.66080729166667  7.52083333333333 9.66080729166667  C 7.62803819444444 9.66080729166667  7.72287326388889 9.70203993055556  7.80533854166667 9.78450520833333  L 9.21549479166667 11.1946614583333  Z M 18.7649739583333 0.235026041666666  C 18.9216579861111 0.391710069444442  19 0.577256944444442  19 0.791666666666666  L 19 6.33333333333333  C 19 6.54774305555555  18.9216579861111 6.73328993055555  18.7649739583333 6.88997395833333  C 18.6082899305556 7.04665798611111  18.4227430555556 7.125  18.2083333333333 7.125  C 17.9939236111111 7.125  17.8083767361111 7.04665798611111  17.6516927083333 6.88997395833333  L 15.8704427083333 5.10872395833333  L 11.763671875 9.21549479166667  C 11.6812065972222 9.29796006944444  11.5863715277778 9.33919270833333  11.4791666666667 9.33919270833333  C 11.3719618055556 9.33919270833333  11.2771267361111 9.29796006944444  11.1946614583333 9.21549479166667  L 9.78450520833333 7.80533854166667  C 9.70203993055556 7.72287326388889  9.66080729166667 7.62803819444444  9.66080729166667 7.52083333333333  C 9.66080729166667 7.41362847222222  9.70203993055556 7.31879340277778  9.78450520833333 7.236328125  L 13.8912760416667 3.12955729166667  L 12.1100260416667 1.34830729166667  C 11.9533420138889 1.19162326388889  11.875 1.00607638888889  11.875 0.791666666666666  C 11.875 0.577256944444442  11.9533420138889 0.391710069444442  12.1100260416667 0.235026041666666  C 12.2667100694444 0.078342013888888  12.4522569444444 0  12.6666666666667 0  L 18.2083333333333 0  C 18.4227430555556 0  18.6082899305556 0.078342013888888  18.7649739583333 0.235026041666666  Z " fill-rule="nonzero" fill="#d7d7d7" stroke="none" transform="matrix(1 0 0 1 612 1558 )" />
  </g>
</svg>