<?xml version="1.0" encoding="utf-8"?>
<svg version="1.1" xmlns:xlink="http://www.w3.org/1999/xlink" width="15px" height="24px" xmlns="http://www.w3.org/2000/svg">
  <g transform="matrix(1 0 0 1 -395 -266 )">
    <path d="M 8.603515625 22.659375  C 8.90950520833333 22.365625  9.0625 22.0125  9.0625 21.6  C 9.0625 21.1875  8.90950520833333 20.834375  8.603515625 20.540625  C 8.29752604166667 20.246875  7.9296875 20.1  7.5 20.1  C 7.0703125 20.1  6.70247395833333 20.246875  6.396484375 20.540625  C 6.09049479166667 20.834375  5.9375 21.1875  5.9375 21.6  C 5.9375 22.0125  6.09049479166667 22.365625  6.396484375 22.659375  C 6.70247395833333 22.953125  7.0703125 23.1  7.5 23.1  C 7.9296875 23.1  8.29752604166667 22.953125  8.603515625 22.659375  Z M 12.939453125 19.021875  C 13.0631510416667 18.903125  13.125 18.7625  13 18.6  L 13 5.4  C 13.125 5.2375  13.0631510416667 5.096875  12.939453125 4.978125  C 12.8157552083333 4.859375  12.6692708333333 4.8  12.5 5  L 2.5 5  C 2.33072916666667 4.8  2.18424479166667 4.859375  2.060546875 4.978125  C 1.93684895833333 5.096875  1.875 5.2375  2 5.4  L 2 18.6  C 1.875 18.7625  1.93684895833333 18.903125  2.060546875 19.021875  C 2.18424479166667 19.140625  2.33072916666667 19.2  2.5 19  L 12.5 19  C 12.6692708333333 19.2  12.8157552083333 19.140625  12.939453125 19.021875  Z M 9.0625 3  C 9.27083333333334 3  9.375 2.9  9.375 2.7  C 9.375 2.5  9.27083333333334 2.4  9.0625 2.4  L 5.9375 2.4  C 5.72916666666667 2.4  5.625 2.5  5.625 2.7  C 5.625 2.9  5.72916666666667 3  5.9375 3  L 9.0625 3  Z M 14.2578125 0.712499999999999  C 14.7526041666667 1.1875  15 1.75  15 2.4  L 15 21.6  C 15 22.25  14.7526041666667 22.8125  14.2578125 23.2875  C 13.7630208333333 23.7625  13.1770833333333 24  12.5 24  L 2.5 24  C 1.82291666666667 24  1.23697916666667 23.7625  0.7421875 23.2875  C 0.247395833333333 22.8125  0 22.25  0 21.6  L 0 2.4  C 0 1.75  0.247395833333333 1.1875  0.7421875 0.712499999999999  C 1.23697916666667 0.237499999999997  1.82291666666667 0  2.5 0  L 12.5 0  C 13.1770833333333 0  13.7630208333333 0.237499999999997  14.2578125 0.712499999999999  Z " fill-rule="nonzero" fill="#000000" stroke="none" transform="matrix(1 0 0 1 395 266 )" />
  </g>
</svg>