<?xml version="1.0" encoding="utf-8"?>
<svg version="1.1" xmlns:xlink="http://www.w3.org/1999/xlink" width="102px" height="20px" xmlns="http://www.w3.org/2000/svg">
  <defs>
    <mask fill="white" id="clip258">
      <path d="M 10 20  C 4.39999999999998 20  0 15.5999999999999  0 10  C 0 4.40000000000009  4.39999999999998 0  10 0  L 65.5882352941151 0  L 75.5999999999985 0  L 92 0  C 97.6 0  102 4.40000000000009  102 10  C 102 15.5999999999999  97.6 20  92 20  L 10 20  Z " fill-rule="evenodd" />
    </mask>
  </defs>
  <g transform="matrix(1 0 0 1 -726 -1339 )">
    <path d="M 10 20  C 4.39999999999998 20  0 15.5999999999999  0 10  C 0 4.40000000000009  4.39999999999998 0  10 0  L 65.5882352941151 0  L 75.5999999999985 0  L 92 0  C 97.6 0  102 4.40000000000009  102 10  C 102 15.5999999999999  97.6 20  92 20  L 10 20  Z " fill-rule="nonzero" fill="#ffffff" stroke="none" transform="matrix(1 0 0 1 726 1339 )" />
    <path d="M 10 20  C 4.39999999999998 20  0 15.5999999999999  0 10  C 0 4.40000000000009  4.39999999999998 0  10 0  L 65.5882352941151 0  L 75.5999999999985 0  L 92 0  C 97.6 0  102 4.40000000000009  102 10  C 102 15.5999999999999  97.6 20  92 20  L 10 20  Z " stroke-width="2" stroke="#aaaaaa" fill="none" transform="matrix(1 0 0 1 726 1339 )" mask="url(#clip258)" />
  </g>
</svg>