<?xml version="1.0" encoding="utf-8"?>
<svg version="1.1" xmlns:xlink="http://www.w3.org/1999/xlink" width="16px" height="26px" xmlns="http://www.w3.org/2000/svg">
  <g transform="matrix(1 0 0 1 0 -10 )">
    <path d="M 10.828125 11.73046875  C 11.609375 10.8841145833333  12 9.86284722222222  12 8.66666666666667  C 12 7.47048611111111  11.609375 6.44921875  10.828125 5.60286458333333  C 10.046875 4.75651041666667  9.10416666666667 4.33333333333333  8 4.33333333333333  C 6.89583333333333 4.33333333333333  5.953125 4.75651041666667  5.171875 5.60286458333333  C 4.390625 6.44921875  4 7.47048611111111  4 8.66666666666667  C 4 9.86284722222222  4.390625 10.8841145833333  5.171875 11.73046875  C 5.953125 12.5768229166667  6.89583333333333 13  8 13  C 9.10416666666667 13  10.046875 12.5768229166667  10.828125 11.73046875  Z M 13.65625 2.5390625  C 15.21875 4.23177083333333  16 6.27430555555555  16 8.66666666666667  C 16 9.89670138888889  15.828125 10.9066840277778  15.484375 11.6966145833333  L 9.796875 24.7981770833333  C 9.63020833333333 25.1705729166667  9.3828125 25.4639756944444  9.0546875 25.6783854166667  C 8.7265625 25.8927951388889  8.375 26  8 26  C 7.625 26  7.2734375 25.8927951388889  6.9453125 25.6783854166667  C 6.6171875 25.4639756944444  6.375 25.1705729166667  6.21875 24.7981770833333  L 0.515625 11.6966145833333  C 0.171875 10.9066840277778  0 9.89670138888889  0 8.66666666666667  C 0 6.27430555555555  0.78125 4.23177083333333  2.34375 2.5390625  C 3.90625 0.846354166666668  5.79166666666667 0  8 0  C 10.2083333333333 0  12.09375 0.846354166666668  13.65625 2.5390625  Z " fill-rule="nonzero" fill="#555555" stroke="none" transform="matrix(1 0 0 1 0 10 )" />
  </g>
</svg>