<?xml version="1.0" encoding="utf-8"?>
<svg version="1.1" xmlns:xlink="http://www.w3.org/1999/xlink" width="18px" height="18px" xmlns="http://www.w3.org/2000/svg">
  <g transform="matrix(1 0 0 1 -869 -16 )">
    <path d="M 14.8359375 9.5390625  C 14.9765625 9.3984375  15.046875 9.22265625  15.046875 9.01171875  C 15.046875 8.80078125  14.9765625 8.625  14.8359375 8.484375  L 13.76953125 7.41796875  C 13.62890625 7.27734375  13.453125 7.20703125  13.2421875 7.20703125  C 13.03125 7.20703125  12.85546875 7.27734375  12.71484375 7.41796875  L 10.5 9.6328125  L 10.5 3.75  C 10.5 3.546875  10.42578125 3.37109375  10.27734375 3.22265625  C 10.12890625 3.07421875  9.953125 3  9.75 3  L 8.25 3  C 8.046875 3  7.87109375 3.07421875  7.72265625 3.22265625  C 7.57421875 3.37109375  7.5 3.546875  7.5 3.75  L 7.5 9.6328125  L 5.28515625 7.41796875  C 5.13671875 7.26953125  4.9609375 7.1953125  4.7578125 7.1953125  C 4.5546875 7.1953125  4.37890625 7.26953125  4.23046875 7.41796875  L 3.1640625 8.484375  C 3.0234375 8.625  2.953125 8.80078125  2.953125 9.01171875  C 2.953125 9.22265625  3.0234375 9.3984375  3.1640625 9.5390625  L 7.40625 13.78125  L 8.47265625 14.84765625  C 8.61328125 14.98828125  8.7890625 15.05859375  9 15.05859375  C 9.2109375 15.05859375  9.38671875 14.98828125  9.52734375 14.84765625  L 10.59375 13.78125  L 14.8359375 9.5390625  Z M 16.79296875 4.482421875  C 17.59765625 5.861328125  18 7.3671875  18 9  C 18 10.6328125  17.59765625 12.138671875  16.79296875 13.517578125  C 15.98828125 14.896484375  14.896484375 15.98828125  13.517578125 16.79296875  C 12.138671875 17.59765625  10.6328125 18  9 18  C 7.3671875 18  5.861328125 17.59765625  4.482421875 16.79296875  C 3.103515625 15.98828125  2.01171875 14.896484375  1.20703125 13.517578125  C 0.40234375 12.138671875  0 10.6328125  0 9  C 0 7.3671875  0.40234375 5.861328125  1.20703125 4.482421875  C 2.01171875 3.103515625  3.103515625 2.01171875  4.482421875 1.20703125  C 5.861328125 0.402343749999998  7.3671875 0  9 0  C 10.6328125 0  12.138671875 0.402343749999998  13.517578125 1.20703125  C 14.896484375 2.01171875  15.98828125 3.103515625  16.79296875 4.482421875  Z " fill-rule="nonzero" fill="#555555" stroke="none" transform="matrix(1 0 0 1 869 16 )" />
  </g>
</svg>