<?xml version="1.0" encoding="utf-8"?>
<svg version="1.1" xmlns:xlink="http://www.w3.org/1999/xlink" width="16px" height="16px" xmlns="http://www.w3.org/2000/svg">
  <g transform="matrix(1 0 0 1 -912 -18 )">
    <path d="M 15.9659090909091 12.3977272727273  C 15.9886363636364 12.4507575757576  16 12.530303030303  16 12.6363636363636  C 16 12.8409090909091  15.9621212121212 13.1079545454545  15.8863636363636 13.4375  C 15.8106060606061 13.7670454545455  15.7310606060606 14.0265151515152  15.6477272727273 14.2159090909091  C 15.4886363636364 14.594696969697  15.0265151515152 14.9962121212121  14.2613636363636 15.4204545454545  C 13.5492424242424 15.8068181818182  12.844696969697 16  12.1477272727273 16  C 11.9431818181818 16  11.7424242424242 15.9867424242424  11.5454545454545 15.9602272727273  C 11.3484848484848 15.9337121212121  11.1306818181818 15.8863636363636  10.8920454545455 15.8181818181818  C 10.6534090909091 15.75  10.4753787878788 15.6950757575758  10.3579545454545 15.6534090909091  C 10.2405303030303 15.6117424242424  10.030303030303 15.5340909090909  9.72727272727273 15.4204545454545  C 9.42424242424243 15.3068181818182  9.23863636363637 15.2386363636364  9.17045454545454 15.2159090909091  C 8.4280303030303 14.9507575757576  7.76515151515152 14.6363636363636  7.18181818181818 14.2727272727273  C 6.21969696969697 13.6742424242424  5.21969696969697 12.8560606060606  4.18181818181818 11.8181818181818  C 3.14393939393939 10.780303030303  2.32575757575758 9.78030303030303  1.72727272727273 8.81818181818182  C 1.36363636363636 8.23484848484848  1.04924242424242 7.5719696969697  0.784090909090909 6.82954545454546  C 0.761363636363636 6.76136363636363  0.693181818181818 6.57575757575757  0.579545454545455 6.27272727272727  C 0.465909090909091 5.96969696969697  0.388257575757576 5.7594696969697  0.346590909090909 5.64204545454546  C 0.304924242424242 5.52462121212121  0.25 5.34659090909091  0.181818181818182 5.10795454545454  C 0.113636363636364 4.86931818181818  0.0662878787878788 4.65151515151515  0.0397727272727273 4.45454545454546  C 0.0132575757575758 4.25757575757576  0 4.05681818181818  0 3.85227272727273  C 0 3.15530303030303  0.193181818181818 2.45075757575757  0.579545454545455 1.73863636363636  C 1.00378787878788 0.973484848484846  1.40530303030303 0.511363636363637  1.78409090909091 0.352272727272727  C 1.97348484848485 0.268939393939393  2.23295454545455 0.189393939393938  2.5625 0.113636363636363  C 2.89204545454545 0.0378787878787872  3.15909090909091 0  3.36363636363636 0  C 3.46969696969697 0  3.54924242424242 0.0113636363636367  3.60227272727273 0.0340909090909083  C 3.73863636363636 0.079545454545455  3.93939393939394 0.367424242424242  4.20454545454545 0.897727272727273  C 4.28787878787879 1.04166666666666  4.40151515151515 1.24621212121212  4.54545454545455 1.51136363636364  C 4.68939393939394 1.77651515151515  4.8219696969697 2.01704545454546  4.94318181818182 2.23295454545454  C 5.06439393939394 2.44886363636364  5.18181818181818 2.65151515151515  5.29545454545455 2.84090909090909  C 5.31818181818182 2.87121212121212  5.3844696969697 2.96590909090909  5.49431818181818 3.125  C 5.60416666666667 3.28409090909091  5.68560606060606 3.41856060606061  5.73863636363636 3.52840909090909  C 5.79166666666667 3.63825757575757  5.81818181818182 3.74621212121212  5.81818181818182 3.85227272727273  C 5.81818181818182 4.00378787878788  5.71022727272727 4.19318181818182  5.49431818181818 4.42045454545454  C 5.27840909090909 4.64772727272727  5.04356060606061 4.85606060606061  4.78977272727273 5.04545454545454  C 4.53598484848485 5.23484848484848  4.30113636363636 5.43560606060606  4.08522727272727 5.64772727272727  C 3.86931818181818 5.85984848484848  3.76136363636364 6.03409090909091  3.76136363636364 6.17045454545454  C 3.76136363636364 6.23863636363636  3.78030303030303 6.32386363636364  3.81818181818182 6.42613636363636  C 3.85606060606061 6.52840909090909  3.88825757575758 6.60606060606061  3.91477272727273 6.65909090909091  C 3.94128787878788 6.71212121212121  3.99431818181818 6.8030303030303  4.07386363636364 6.93181818181818  C 4.15340909090909 7.06060606060606  4.1969696969697 7.13257575757576  4.20454545454545 7.14772727272727  C 4.78030303030303 8.18560606060606  5.43939393939394 9.07575757575757  6.18181818181818 9.81818181818182  C 6.92424242424242 10.5606060606061  7.81439393939394 11.219696969697  8.85227272727273 11.7954545454545  C 8.86742424242424 11.8030303030303  8.93939393939394 11.8465909090909  9.06818181818182 11.9261363636364  C 9.1969696969697 12.0056818181818  9.28787878787879 12.0587121212121  9.34090909090909 12.0852272727273  C 9.39393939393939 12.1117424242424  9.47159090909091 12.1439393939394  9.57386363636364 12.1818181818182  C 9.67613636363636 12.219696969697  9.76136363636364 12.2386363636364  9.82954545454546 12.2386363636364  C 9.96590909090909 12.2386363636364  10.1401515151515 12.1306818181818  10.3522727272727 11.9147727272727  C 10.5643939393939 11.6988636363636  10.7651515151515 11.4640151515152  10.9545454545455 11.2102272727273  C 11.1439393939394 10.9564393939394  11.3522727272727 10.7215909090909  11.5795454545455 10.5056818181818  C 11.8068181818182 10.2897727272727  11.9962121212121 10.1818181818182  12.1477272727273 10.1818181818182  C 12.2537878787879 10.1818181818182  12.3617424242424 10.2083333333333  12.4715909090909 10.2613636363636  C 12.5814393939394 10.3143939393939  12.7159090909091 10.3958333333333  12.875 10.5056818181818  C 13.0340909090909 10.6155303030303  13.1287878787879 10.6818181818182  13.1590909090909 10.7045454545455  C 13.3484848484848 10.8181818181818  13.5511363636364 10.9356060606061  13.7670454545455 11.0568181818182  C 13.9829545454545 11.1780303030303  14.2234848484848 11.3106060606061  14.4886363636364 11.4545454545455  C 14.7537878787879 11.5984848484848  14.9583333333333 11.7121212121212  15.1022727272727 11.7954545454545  C 15.6325757575758 12.0606060606061  15.9204545454545 12.2613636363636  15.9659090909091 12.3977272727273  Z " fill-rule="nonzero" fill="#7f7f7f" stroke="none" transform="matrix(1 0 0 1 912 18 )" />
  </g>
</svg>