<?xml version="1.0" encoding="utf-8"?>
<svg version="1.1" xmlns:xlink="http://www.w3.org/1999/xlink" width="77px" height="63px" xmlns="http://www.w3.org/2000/svg">
  <g transform="matrix(1 0 0 1 -33 -179 )">
    <path d="M 33 179  L 110 179  L 110 242  L 33 242  L 33 179  " fill-rule="nonzero" fill="#cccccc" stroke="none" />
    <path d="M 37 183  L 106 183  L 106 238  L 37 238  L 37 183  " fill-rule="nonzero" fill="#ffffff" stroke="none" />
    <path d="M 77.765 197.9  C 75.119 197.9  73.04 195.821  73.04 193.175  C 73.04 190.529  75.119 188.45  77.765 188.45  C 80.411 188.45  82.49 190.529  82.49 193.175  C 82.49 195.821  80.411 197.9  77.765 197.9  " fill-rule="nonzero" fill="#cccccc" stroke="none" />
    <path d="M 39 237  L 39 208.4  L 55.5 195.4  L 78.6 211.472727272727  L 91.8 203.2  L 105 211.472727272727  L 105 237  L 39 237  " fill-rule="nonzero" fill="#169bd5" stroke="none" />
  </g>
</svg>