<?xml version="1.0" encoding="utf-8"?>
<svg version="1.1" xmlns:xlink="http://www.w3.org/1999/xlink" width="267px" height="80px" xmlns="http://www.w3.org/2000/svg">
  <g transform="matrix(1 0 0 1 -56 -70 )">
    <path d="M 56 70  L 323 70  L 323 150  L 56 150  L 56 70  " fill-rule="nonzero" fill="#cccccc" stroke="none" />
    <path d="M 62 76  L 317 76  L 317 144  L 62 144  L 62 76  " fill-rule="nonzero" fill="#ffffff" stroke="none" />
    <path d="M 200.84 94  C 197.48 94  194.84 91.36  194.84 88  C 194.84 84.64  197.48 82  200.84 82  C 204.2 82  206.84 84.64  206.84 88  C 206.84 91.36  204.2 94  200.84 94  " fill-rule="nonzero" fill="#cccccc" stroke="none" />
    <path d="M 64 142  L 64 106.8  L 126.75 90.8  L 214.6 130.494382022472  L 264.8 100.4  L 315 130.494382022472  L 315 142  L 64 142  " fill-rule="nonzero" fill="#169bd5" stroke="none" />
  </g>
</svg>