<?xml version="1.0" encoding="utf-8"?>
<svg version="1.1" xmlns:xlink="http://www.w3.org/1999/xlink" width="12px" height="12px" viewBox="504 167  12 12" xmlns="http://www.w3.org/2000/svg">
  <path d="M 510 167  C 513.36 167  516 169.64  516 173  C 516 176.36  513.36 179  510 179  C 506.64 179  504 176.36  504 173  C 504 169.64  506.64 167  510 167  Z " fill-rule="nonzero" fill="#ffffff" stroke="none" />
  <path d="M 510 167.5  C 513.08 167.5  515.5 169.92  515.5 173  C 515.5 176.08  513.08 178.5  510 178.5  C 506.92 178.5  504.5 176.08  504.5 173  C 504.5 169.92  506.92 167.5  510 167.5  Z " stroke-width="1" stroke="#797979" fill="none" />
  <path d="M 510 176  C 508.32 176  507 174.68  507 173  C 507 171.32  508.32 170  510 170  C 511.68 170  513 171.32  513 173  C 513 174.68  511.68 176  510 176  " fill-rule="nonzero" fill="#797979" stroke="none" />
</svg>