<?xml version="1.0" encoding="utf-8"?>
<svg version="1.1" xmlns:xlink="http://www.w3.org/1999/xlink" width="20px" height="20px" xmlns="http://www.w3.org/2000/svg">
  <g transform="matrix(1 0 0 1 -11 -25 )">
    <path d="M 21 25  C 26.6 25  31 29.4  31 35  C 31 40.6  26.6 45  21 45  C 15.4 45  11 40.6  11 35  C 11 29.4  15.4 25  21 25  Z " fill-rule="nonzero" fill="#ffffff" stroke="none" />
    <path d="M 21 25.5  C 26.32 25.5  30.5 29.68  30.5 35  C 30.5 40.32  26.32 44.5  21 44.5  C 15.68 44.5  11.5 40.32  11.5 35  C 11.5 29.68  15.68 25.5  21 25.5  Z " stroke-width="1" stroke="#797979" fill="none" />
  </g>
</svg>