<?xml version="1.0" encoding="utf-8"?>
<svg version="1.1" xmlns:xlink="http://www.w3.org/1999/xlink" width="7px" height="11px" xmlns="http://www.w3.org/2000/svg">
  <g transform="matrix(1 0 0 1 -420 -313 )">
    <path d="M 4.01497395833333 10.385546875  C 4.15776909722222 10.2509114583333  4.22916666666667 10.0890625  4.22916666666667 9.9  C 4.22916666666667 9.7109375  4.15776909722222 9.54908854166667  4.01497395833333 9.414453125  C 3.87217881944444 9.27981770833333  3.70052083333333 9.2125  3.5 9.2125  C 3.29947916666667 9.2125  3.12782118055556 9.27981770833333  2.98502604166667 9.414453125  C 2.84223090277778 9.54908854166667  2.77083333333333 9.7109375  2.77083333333333 9.9  C 2.77083333333333 10.0890625  2.84223090277778 10.2509114583333  2.98502604166667 10.385546875  C 3.12782118055556 10.5201822916667  3.29947916666667 10.5875  3.5 10.5875  C 3.70052083333333 10.5875  3.87217881944444 10.5201822916667  4.01497395833333 10.385546875  Z M 6.03841145833333 8.718359375  C 6.09613715277778 8.66393229166667  6.125 8.59947916666667  6.125 8.525  L 6.125 2.475  C 6.125 2.40052083333333  6.09613715277778 2.33606770833333  6.03841145833333 2.281640625  C 5.98068576388889 2.22721354166667  5.91232638888889 2.2  5.83333333333333 2.2  L 1.16666666666667 2.2  C 1.08767361111111 2.2  1.01931423611111 2.22721354166667  0.961588541666667 2.281640625  C 0.903862847222222 2.33606770833333  0.875 2.40052083333333  0.875 2.475  L 0.875 8.525  C 0.875 8.59947916666667  0.903862847222222 8.66393229166667  0.961588541666667 8.718359375  C 1.01931423611111 8.77278645833333  1.08767361111111 8.8  1.16666666666667 8.8  L 5.83333333333333 8.8  C 5.91232638888889 8.8  5.98068576388889 8.77278645833333  6.03841145833333 8.718359375  Z M 4.22916666666667 1.375  C 4.32638888888889 1.375  4.375 1.32916666666667  4.375 1.2375  C 4.375 1.14583333333333  4.32638888888889 1.1  4.22916666666667 1.1  L 2.77083333333333 1.1  C 2.67361111111111 1.1  2.625 1.14583333333333  2.625 1.2375  C 2.625 1.32916666666667  2.67361111111111 1.375  2.77083333333333 1.375  L 4.22916666666667 1.375  Z M 6.65364583333333 0.3265625  C 6.88454861111111 0.544270833333333  7 0.802083333333333  7 1.1  L 7 9.9  C 7 10.1979166666667  6.88454861111111 10.4557291666667  6.65364583333333 10.6734375  C 6.42274305555556 10.8911458333333  6.14930555555556 11  5.83333333333333 11  L 1.16666666666667 11  C 0.850694444444445 11  0.577256944444444 10.8911458333333  0.346354166666667 10.6734375  C 0.115451388888889 10.4557291666667  0 10.1979166666667  0 9.9  L 0 1.1  C 0 0.802083333333333  0.115451388888889 0.544270833333333  0.346354166666667 0.3265625  C 0.577256944444444 0.108854166666665  0.850694444444445 0  1.16666666666667 0  L 5.83333333333333 0  C 6.14930555555556 0  6.42274305555556 0.108854166666665  6.65364583333333 0.3265625  Z " fill-rule="nonzero" fill="#f2f2f2" stroke="none" transform="matrix(1 0 0 1 420 313 )" />
  </g>
</svg>