<?xml version="1.0" encoding="utf-8"?>
<svg version="1.1" xmlns:xlink="http://www.w3.org/1999/xlink" width="60px" height="60px" xmlns="http://www.w3.org/2000/svg">
  <g transform="matrix(1 0 0 1 -861 -236 )">
    <path d="M 891 236  C 907.8 236  921 249.2  921 266  C 921 282.8  907.8 296  891 296  C 874.2 296  861 282.8  861 266  C 861 249.2  874.2 236  891 236  Z " fill-rule="nonzero" fill="#ffffff" stroke="none" />
    <path d="M 891 236.5  C 907.52 236.5  920.5 249.48  920.5 266  C 920.5 282.52  907.52 295.5  891 295.5  C 874.48 295.5  861.5 282.52  861.5 266  C 861.5 249.48  874.48 236.5  891 236.5  Z " stroke-width="1" stroke="#797979" fill="none" />
  </g>
</svg>