<?xml version="1.0" encoding="utf-8"?>
<svg version="1.1" xmlns:xlink="http://www.w3.org/1999/xlink" width="60px" height="60px" xmlns="http://www.w3.org/2000/svg">
  <g transform="matrix(1 0 0 1 -861 -236 )">
    <path d="M 35.05859375 47.976346911958  C 37.59765625 51.2352168199737  40.6640625 54.0078843626807  44.2578125 56.2943495400788  C 39.8046875 58.7647831800263  35.0130208333333 60  29.8828125 60  C 24.7786458333333 60  20 58.7647831800263  15.546875 56.2943495400788  C 19.140625 54.0078843626807  22.20703125 51.2352168199737  24.74609375 47.976346911958  C 27.28515625 44.7174770039422  28.9973958333333 41.1957950065703  29.8828125 37.4113009198423  C 30.7942708333333 41.1957950065703  32.51953125 44.7174770039422  35.05859375 47.976346911958  Z M 12.2265625 5.40078843626807  C 16.0286458333333 2.58869908015768  20.2604166666667 0.788436268068331  25 0  L 25 19.119579500657  C 24.921875 25.742444152431  23.2747395833333 31.7805519053876  19.98046875 37.2339027595269  C 16.6861979166667 42.6872536136662  12.3828125 46.7148488830486  7.0703125 49.3166885676741  C 2.35677083333333 43.6662286465177  0 37.161629434954  0 29.8028909329829  C 0 24.8883048620236  1.08723958333333 20.2956636005256  3.26171875 16.0249671484888  C 5.43619791666667 11.754270696452  8.42447916666667 8.21287779237845  12.2265625 5.40078843626807  Z M 56.73828125 16.0249671484888  C 58.9127604166667 20.2956636005256  60 24.8883048620236  60 29.8028909329829  C 60 37.161629434954  57.6432291666667 43.6662286465177  52.9296875 49.3166885676741  C 47.6171875 46.7148488830486  43.3138020833333 42.6872536136662  40.01953125 37.2339027595269  C 36.7252604166667 31.7805519053876  35.078125 25.742444152431  35 19.119579500657  L 35 0  C 39.7395833333333 0.788436268068331  43.9713541666667 2.58869908015768  47.7734375 5.40078843626807  C 51.5755208333333 8.21287779237845  54.5638020833333 11.754270696452  56.73828125 16.0249671484888  Z " fill-rule="nonzero" fill="#555555" stroke="none" transform="matrix(1 0 0 1 861 236 )" />
  </g>
</svg>