<?xml version="1.0" encoding="utf-8"?>
<svg version="1.1" xmlns:xlink="http://www.w3.org/1999/xlink" width="12px" height="12px" viewBox="607 532  12 12" xmlns="http://www.w3.org/2000/svg">
  <path d="M 613 532  C 616.36 532  619 534.64  619 538  C 619 541.36  616.36 544  613 544  C 609.64 544  607 541.36  607 538  C 607 534.64  609.64 532  613 532  Z " fill-rule="nonzero" fill="#f0f0f0" stroke="none" />
  <path d="M 613 532.5  C 616.08 532.5  618.5 534.92  618.5 538  C 618.5 541.08  616.08 543.5  613 543.5  C 609.92 543.5  607.5 541.08  607.5 538  C 607.5 534.92  609.92 532.5  613 532.5  Z " stroke-width="1" stroke="#797979" fill="none" />
  <path d="M 613 541  C 611.32 541  610 539.68  610 538  C 610 536.32  611.32 535  613 535  C 614.68 535  616 536.32  616 538  C 616 539.68  614.68 541  613 541  " fill-rule="nonzero" fill="#797979" stroke="none" />
</svg>