<?xml version="1.0" encoding="utf-8"?>
<svg version="1.1" xmlns:xlink="http://www.w3.org/1999/xlink" width="12px" height="12px" viewBox="711 510  12 12" xmlns="http://www.w3.org/2000/svg">
  <path d="M 717 510  C 720.36 510  723 512.64  723 516  C 723 519.36  720.36 522  717 522  C 713.64 522  711 519.36  711 516  C 711 512.64  713.64 510  717 510  Z " fill-rule="nonzero" fill="#f0f0f0" stroke="none" />
  <path d="M 717 510.5  C 720.08 510.5  722.5 512.92  722.5 516  C 722.5 519.08  720.08 521.5  717 521.5  C 713.92 521.5  711.5 519.08  711.5 516  C 711.5 512.92  713.92 510.5  717 510.5  Z " stroke-width="1" stroke="#797979" fill="none" />
  <path d="M 717 519  C 715.32 519  714 517.68  714 516  C 714 514.32  715.32 513  717 513  C 718.68 513  720 514.32  720 516  C 720 517.68  718.68 519  717 519  " fill-rule="nonzero" fill="#797979" stroke="none" />
</svg>